<svg height="450pt" viewBox="-56 0 450 450" width="450pt" xmlns="http://www.w3.org/2000/svg"><g fill="#d4e1f4"><path d="m287.398438 41.601562h-55.5v29.898438l12.5.101562h81.601562c-4.429688-17.691406-20.363281-30.074218-38.601562-30zm0 0"/><path d="m10 81.601562v318.398438c-.007812 22.09375 17.90625 40.007812 40 40h1.300781c-.84375-3.265625-1.28125-6.625-1.300781-10v-318.398438c-.007812-22.09375 17.90625-40.007812 40-40l14-.101562v-29.898438h-54c-22.09375-.007812-40.007812 17.90625-40 40zm0 0"/><path d="m104 10v61.398438h30v-41.398438h99.398438v-20zm0 0"/></g><path d="m168.699219 140.800781c-55.226563 0-100 44.769531-100 100 0 55.226563 44.773437 100 100 100 55.230469 0 100-44.773437 100-100-.089844-55.191406-44.808594-99.910156-100-100zm0 180c-44.183594 0-80-35.816406-80-80 0-44.183593 35.816406-80 80-80 44.183593 0 80 35.816407 80 80-.058594 44.15625-35.839844 79.941407-80 80zm0 0" fill="#1ae5be"/><path d="m287.398438 31.601562h-44v-21.601562c-.015626-5.515625-4.480469-9.984375-10-10h-129.398438c-5.515625.015625-9.984375 4.484375-10 10v21.601562h-44c-27.609375.007813-49.9882812 22.386719-50 50v318.398438c.0117188 27.609375 22.390625 49.988281 50 50h237.398438c27.613281-.011719 49.992187-22.390625 50-50v-318.398438c-.007813-27.613281-22.386719-49.992187-50-50zm-173.398438-11.601562h109.398438v41.398438h-109.398438zm203.398438 380c-.046876 16.546875-13.449219 29.953125-30 30h-237.398438c-16.546875-.046875-29.953125-13.453125-30-30v-318.398438c.046875-16.550781 13.453125-29.953124 30-30h44v19.898438c.015625 5.515625 4.484375 9.984375 10 10h129.398438c5.519531-.015625 9.984374-4.484375 10-10v-19.898438h44c16.550781.046876 29.953124 13.449219 30 30zm0 0" fill="#0635c9"/><path d="m209.699219 207.699219-52.699219 50.402343-27-27c-3.894531-3.894531-10.207031-3.894531-14.101562 0-3.890626 3.890626-3.890626 10.203126 0 14.097657l33.902343 33.902343c1.875 1.886719 4.4375 2.933594 7.097657 2.898438 2.582031.023438 5.066406-.984375 6.902343-2.800781l59.800781-57.097657c1.910157-1.828124 3.015626-4.34375 3.074219-6.988281.054688-2.644531-.941406-5.207031-2.777343-7.113281-3.867188-3.933594-10.167969-4.066406-14.199219-.300781zm0 0" fill="#0635c9"/></svg>